<?xml version="1.0" standalone="no"?>
<!DOCTYPE svg>
<svg version="1.0" xmlns="http://www.w3.org/2000/svg"
 width="1280.000000pt" height="719.000000pt" viewBox="0 0 1280.000000 719.000000"
 preserveAspectRatio="xMidYMid meet">
	<metadata>
	https://github.com/BaseMax/PikachuPixelCSS
	</metadata>
	<g transform="translate(0.000000,719.000000) scale(0.100000,-0.100000)"
	fill="#000000" stroke="none">
		<path d="M8508 6343 l-3 -68 -135 -3 c-76 -1 -137 -7 -140 -13 -4 -5 -8 -35
		-9 -67 -1 -31 -4 -58 -6 -60 -2 -2 -63 -4 -137 -5 l-133 -2 -5 -70 -5 -70 -65
		-1 -65 -1 -5 -69 -5 -69 -67 -3 -67 -3 -3 -67 c-3 -75 5 -69 -95 -71 l-43 -1
		0 -70 0 -70 76 0 76 0 -4 70 -3 70 73 0 72 0 0 70 0 70 70 0 70 0 0 70 0 70
		209 0 209 0 -2 -277 -1 -278 -71 -5 -70 -5 -1 -60 c-1 -33 -2 -63 -2 -67 -1
		-5 -33 -8 -72 -8 l-70 0 2 -67 3 -68 -72 -3 -72 -3 0 -69 0 -70 -65 0 -65 0 0
		70 0 70 -75 0 -75 0 0 -70 0 -70 70 0 70 0 0 -210 0 -210 70 0 70 0 0 -210 0
		-210 -129 0 c-72 0 -132 -4 -136 -9 -3 -5 -6 -32 -6 -59 -2 -68 -9 -77 -63
		-73 -88 5 -86 8 -86 -145 l0 -134 69 0 c80 0 81 -2 76 -87 l-3 -52 137 -3 136
		-3 3 -137 3 -137 -68 -3 -68 -3 -3 -72 -3 -73 71 0 70 0 0 -280 0 -280 70 0
		70 0 0 -480 c0 -264 1 -483 3 -487 1 -5 -31 -9 -70 -11 l-73 -3 0 -139 0 -140
		-70 0 -70 0 0 -70 0 -70 -70 0 -70 0 0 -70 0 -70 70 0 70 0 0 -70 0 -70 -204
		0 c-231 0 -216 -6 -216 86 l0 53 -137 3 -138 3 -3 68 -3 67 -489 0 -489 0 -3
		-67 -3 -68 -137 -3 -137 -3 -3 -67 -3 -67 -207 -3 -208 -2 0 70 0 70 70 0 70
		0 0 70 0 70 -70 0 -70 0 0 70 0 70 -70 0 -70 0 0 140 0 140 -70 0 -70 0 -1
		545 c-1 300 -2 551 -3 558 -1 8 21 13 72 15 l72 3 0 69 0 70 70 0 70 0 0 75 0
		75 -70 0 -70 0 0 65 0 65 70 0 70 0 0 75 0 75 -70 0 -70 0 0 140 0 140 -70 0
		-70 0 0 281 0 280 68 -2 67 -3 3 212 2 212 70 0 70 0 0 140 0 140 70 0 70 0 0
		70 0 70 -75 0 -75 0 0 -70 0 -69 -67 -3 -68 -3 -3 -137 -3 -138 -69 0 -70 0 0
		-210 0 -210 -70 0 -70 0 2 -282 3 -283 68 -3 67 -3 0 -139 0 -140 70 0 70 0 0
		-65 0 -65 -135 0 -135 0 -1 48 c-2 93 3 86 -74 92 l-70 5 -3 68 -3 67 -69 0
		-70 0 0 70 0 69 -67 3 -68 3 -3 68 -3 67 -69 0 -70 0 0 70 0 70 -70 0 -70 0 0
		70 0 70 -70 0 -70 0 0 70 0 70 -70 0 -70 0 0 -705 0 -705 70 0 70 0 0 -70 0
		-70 70 0 70 0 0 -70 0 -70 -70 0 -70 0 0 -140 0 -140 70 0 70 0 0 -70 0 -70
		70 0 70 0 0 -70 0 -70 70 0 70 0 0 -70 0 -70 -70 0 -70 0 0 -70 0 -70 71 0 71
		0 -4 -70 -3 -70 73 0 72 0 0 -70 0 -70 140 0 140 0 0 -70 0 -70 210 0 210 0 0
		-70 0 -69 -67 -3 -68 -3 -3 -138 -3 -137 71 0 c91 -1 479 -1 570 0 l70 0 0 71
		0 70 140 -3 140 -3 0 73 0 72 418 -2 417 -3 3 -67 3 -67 67 -3 67 -3 3 -68 3
		-67 62 0 c112 -1 500 -1 575 -1 l72 1 0 140 0 140 -70 0 -70 0 0 70 0 70 70 0
		70 0 0 70 0 70 70 0 70 0 0 140 0 140 70 0 70 0 0 493 0 493 -70 -2 -70 -2 0
		284 0 284 -70 0 -70 0 0 65 0 65 70 0 69 0 3 142 3 142 68 -3 67 -2 0 285 0
		286 -70 0 -70 0 0 210 0 210 -70 0 -70 0 0 210 0 210 70 0 70 0 0 70 0 70 70
		0 70 0 0 70 0 70 70 0 70 0 0 70 0 70 70 0 70 0 0 70 0 70 70 0 70 0 0 140 0
		140 70 0 70 0 0 285 0 285 -140 0 -139 0 -3 -67z m-428 -2252 c0 -39 -5 -71
		-10 -73 -6 -2 -36 -1 -68 2 l-57 5 -3 54 c-5 79 -2 81 73 81 l65 0 0 -69z
		m-3790 -285 l5 -68 65 -2 65 -1 3 -72 3 -73 69 0 70 0 0 -70 0 -70 70 0 70 0
		0 -70 0 -70 70 0 70 0 0 -70 0 -70 70 0 70 0 0 -70 0 -70 70 0 71 0 -3 -137
		-3 -138 -70 -2 c-38 0 -100 -2 -137 -2 l-67 -1 -3 -67 -3 -68 -67 -3 -68 -3 0
		-69 0 -70 -70 0 -70 0 0 -70 0 -70 70 0 70 0 0 -70 0 -70 70 0 70 0 0 -70 0
		-70 70 0 70 0 0 -70 0 -70 -70 0 -70 0 0 -70 0 -70 70 0 70 0 0 -70 0 -70 70
		0 70 0 0 -140 0 -140 -65 0 -65 0 -2 53 c0 28 -1 60 0 69 2 16 -13 18 -141 20
		l-142 3 -3 67 -3 67 -67 3 -67 3 -3 68 -3 67 73 0 73 0 -3 70 -4 70 -69 0 -69
		0 0 73 0 72 -67 0 -68 0 -5 70 -5 70 -65 0 -65 0 -3 138 -3 137 71 0 70 0 0
		73 0 72 -67 0 -68 0 -5 70 -5 70 -65 0 -65 0 -3 550 c-1 303 0 556 3 563 3 10
		23 12 67 10 l63 -3 5 -69z m3790 -126 c0 -33 0 -63 0 -67 0 -5 -30 -8 -67 -8
		l-67 0 0 40 c1 101 -4 95 69 95 l65 0 0 -60z m-3091 -1275 l0 -205 -64 0 -65
		0 0 70 0 70 -70 0 -70 0 0 65 0 65 70 0 70 0 0 70 0 70 65 0 64 0 0 -205z"/>
		<path d="M4008 5702 l-3 -142 143 0 144 0 -4 -70 -3 -70 73 0 72 0 0 -70 0
		-70 70 0 70 0 0 -70 0 -70 70 0 70 0 0 -70 0 -70 140 0 140 0 0 -70 0 -70 145
		0 145 0 0 70 0 69 -142 3 -142 3 1 65 1 65 -71 5 -72 5 -3 67 -3 67 -67 3 -67
		3 -5 70 -5 70 -65 0 -65 0 -5 70 -5 70 -65 0 -65 0 -3 68 -3 67 211 0 210 0 0
		-70 0 -70 280 0 280 0 0 -70 0 -70 286 0 286 0 -4 -70 -3 -70 73 0 72 0 0 70
		0 70 490 0 490 0 0 -70 0 -70 73 0 72 0 -3 70 -4 70 145 0 144 0 -2 68 -1 67
		-142 3 -141 3 -3 -68 -3 -68 -65 0 -65 0 -3 70 -3 70 -427 -2 c-235 -1 -455
		-2 -489 -3 l-62 0 -3 -67 -3 -68 -67 -3 -68 -3 0 73 0 73 -280 -2 -280 -3 0
		73 0 72 -282 0 -283 0 -5 70 -5 70 -417 0 -417 0 -3 -143z"/>
		<path d="M5839 4665 c-1 -30 -2 -61 -3 -67 -1 -9 -23 -14 -66 -16 -36 -2 -68
		-8 -72 -15 -4 -7 -8 -69 -8 -139 l0 -127 73 -3 72 -3 0 -67 0 -67 143 -3 142
		-3 0 73 0 72 70 0 70 0 0 140 0 140 -70 0 -70 0 0 70 0 70 -140 0 -140 0 -1
		-55z m281 -155 l0 -70 -70 0 -70 0 0 70 0 70 70 0 70 0 0 -70z"/>
		<path d="M7240 4650 l0 -70 -70 0 -70 0 0 -140 0 -140 70 0 70 0 0 -70 0 -70
		143 0 142 0 0 67 0 68 73 3 72 3 0 139 0 140 -70 0 c-49 0 -70 4 -71 13 -1 6
		-3 19 -4 27 -1 8 -3 34 -4 58 l-1 42 -140 0 -140 0 0 -70z m280 -140 l0 -70
		-70 0 -70 0 0 63 c0 35 3 67 7 70 3 4 35 7 70 7 l63 0 0 -70z"/>
		<path d="M5425 4148 c-2 -7 -6 -38 -7 -68 l-3 -55 -67 -3 -68 -3 -1 -67 c0
		-37 -1 -99 -2 -139 l-2 -72 70 -3 70 -3 0 -65 0 -65 70 -5 c39 -3 103 -4 143
		-2 l72 4 0 69 0 69 70 0 70 0 0 140 0 140 -70 0 -70 0 0 70 0 70 -135 0 c-100
		0 -137 -3 -140 -12z"/>
		<path d="M6540 4090 l0 -70 63 0 c34 -1 97 -2 140 -3 l77 -2 0 73 0 72 -140 0
		-140 0 0 -70z"/>
		<path d="M6120 3807 l0 -73 68 1 67 0 1 -70 1 -70 141 -3 141 -3 3 73 3 73
		135 0 135 0 3 -72 3 -73 139 0 139 0 3 73 3 72 65 0 c36 0 66 3 68 8 1 4 2 36
		2 72 l0 65 -70 0 -70 0 0 -70 0 -70 -140 0 -140 0 0 70 0 70 -140 0 -140 0 0
		-70 0 -70 -140 0 -140 0 0 70 0 70 -70 0 -70 0 0 -73z"/>
		<path d="M6118 2755 l-3 -145 73 0 72 0 -2 -277 -3 -278 -137 -3 -138 -3 0 73
		0 73 -71 -5 -71 -5 -2 -68 -1 -67 73 0 74 0 -4 -70 -3 -70 143 0 142 0 0 70 0
		70 70 0 70 0 0 283 0 282 -67 0 -68 0 -3 143 -3 142 -69 0 -69 0 -3 -145z"/>
		<path d="M7098 2758 l-3 -143 -25 -2 c-14 0 -44 -1 -67 -2 l-43 -1 0 -280 0
		-280 70 0 70 0 0 -70 0 -70 143 0 142 0 -3 70 -4 70 76 0 77 0 -3 68 -3 67
		-72 3 -73 3 0 -71 0 -71 -137 3 -138 3 -3 278 -2 277 69 0 69 0 4 73 c2 39 2
		104 0 143 l-3 71 -69 2 -69 2 -3 -143z"/>
		<path d="M5554 2751 c-2 -2 -4 -67 -4 -143 l0 -138 70 0 70 0 1 -52 c0 -29 1
		-92 0 -140 l0 -88 75 0 74 0 0 143 0 142 -70 -3 -70 -4 0 144 0 143 -71 0
		c-39 0 -72 -2 -75 -4z"/>
		<path d="M7664 2751 c-2 -2 -4 -67 -4 -143 l0 -138 -70 0 -70 0 0 -140 0 -140
		75 0 75 0 0 140 0 140 70 0 71 0 -3 142 -3 142 -68 0 c-38 1 -71 -1 -73 -3z"/>
	</g>
</svg>
